<svg width="192" height="192" viewBox="0 0 192 192" fill="none" xmlns="http://www.w3.org/2000/svg">
<g clip-path="url(#clip0_4_99)">
<circle cx="92" cy="94" r="61" fill="#DF0761"/>
<circle cx="115" cy="70" r="14" fill="#D9D9D9"/>
<circle cx="149" cy="72" r="12" fill="#D9D9D9"/>
<path d="M146.415 120.208L112.828 118.823C108.454 118.642 105 115.043 105 110.665C105 106.156 108.656 102.5 113.165 102.5H146.78C152.604 102.5 156.843 108.024 155.335 113.65C154.263 117.654 150.556 120.379 146.415 120.208Z" fill="#C0C0C0"/>
<path d="M61.8454 175.629L81.6188 148.445C84.1944 144.904 89.1045 144.025 92.7484 146.453C96.5013 148.953 97.5169 154.022 95.0168 157.775L76.3802 185.75C73.1512 190.597 66.2033 191.062 62.3571 186.689C59.6196 183.576 59.4071 178.981 61.8454 175.629Z" fill="#B90651"/>
<path d="M81.3102 191.247L64.3294 190.377C60.8058 190.196 58.0376 187.293 58.0246 183.765C58.011 180.095 60.9751 177.109 64.6451 177.095L81.6481 177.032C86.1389 177.016 89.5209 181.114 88.6524 185.52C87.9686 188.988 84.8409 191.428 81.3102 191.247Z" fill="#8E0202"/>
<path d="M59.3098 46.9236L49.1455 25.1549C48.7315 24.2683 49.1049 23.2137 49.9845 22.7851C50.8744 22.3515 51.9474 22.7214 52.381 23.6114L62.904 45.2091C63.6009 46.6395 62.4215 48.2691 60.8449 48.0541C60.1743 47.9626 59.5961 47.5368 59.3098 46.9236Z" fill="#650000"/>
<path d="M72.7525 39.8874L72.4653 15.8642C72.4537 14.8859 73.2286 14.0789 74.2066 14.0511C75.1962 14.0229 76.0212 14.8022 76.0494 15.7918L76.7339 39.8068C76.7792 41.3974 75.0329 42.3959 73.6851 41.5501C73.1119 41.1904 72.7606 40.5641 72.7525 39.8874Z" fill="#650000"/>
<path d="M99.3496 35.1143L108.241 12.7955C108.604 11.8866 109.628 11.436 110.542 11.783C111.468 12.1341 111.934 13.1691 111.583 14.0947L103.061 36.5575C102.497 38.0452 100.502 38.3027 99.578 37.007C99.1851 36.4559 99.0991 35.743 99.3496 35.1143Z" fill="#650000"/>
<path d="M112.536 36.0043L121.532 32.0975C122.426 31.7093 123.466 32.0994 123.885 32.9796C124.314 33.8814 123.93 34.9601 123.028 35.3889L114.171 39.5999C112.959 40.1758 111.539 39.4027 111.364 38.0728C111.25 37.1992 111.728 36.3553 112.536 36.0043Z" fill="#650000"/>
<path d="M88.3744 35.4756L89.8474 25.7794C89.9938 24.8159 90.8775 24.1417 91.8455 24.2552C92.8373 24.3714 93.547 25.2697 93.4308 26.2614L92.289 36.0022C92.1329 37.3344 90.7228 38.1269 89.5037 37.5676C88.7028 37.2002 88.2421 36.3468 88.3744 35.4756Z" fill="#650000"/>
<path d="M98.8052 184.133L80.8336 155.725C78.4927 152.025 79.4872 147.137 83.0878 144.646C86.796 142.08 91.8821 143.006 94.4479 146.714L113.575 174.357C116.889 179.146 114.758 185.776 109.274 187.737C105.371 189.133 101.021 187.636 98.8052 184.133Z" fill="#DF0761"/>
<path d="M124.195 181.799L108.71 188.822C105.497 190.28 101.705 188.972 100.073 185.844C98.3758 182.59 99.6379 178.576 102.892 176.879L117.968 169.016C121.949 166.939 126.836 169.027 128.087 173.34C129.072 176.735 127.414 180.339 124.195 181.799Z" fill="#8E028C"/>
<circle cx="120" cy="70" r="5" fill="black"/>
<circle cx="154" cy="70" r="5" fill="black"/>
</g>
<defs>
<clipPath id="clip0_4_99">
<rect width="192" height="192" fill="white"/>
</clipPath>
</defs>
</svg>
