<svg width="192" height="192" viewBox="0 0 192 192" fill="none" xmlns="http://www.w3.org/2000/svg">
<path d="M114.938 180.817L95.2112 153.599C92.6417 150.054 93.3262 145.113 96.7626 142.4C100.302 139.605 105.436 140.209 108.23 143.748L129.061 170.13C132.671 174.701 130.962 181.452 125.612 183.755C121.805 185.394 117.37 184.174 114.938 180.817Z" fill="#B90651"/>
<path d="M140.21 179.812L124.791 186.977C121.591 188.464 117.787 187.191 116.127 184.077C114.4 180.839 115.625 176.814 118.863 175.087L133.867 167.086C137.829 164.973 142.734 167.016 144.025 171.317C145.042 174.703 143.416 178.322 140.21 179.812Z" fill="#8E028C"/>
<circle cx="92" cy="87" r="61" fill="#DF0761"/>
<circle cx="115" cy="63" r="14" fill="#D9D9D9"/>
<circle cx="149" cy="65" r="12" fill="#D9D9D9"/>
<path d="M146.415 113.208L112.828 111.823C108.454 111.642 105 108.043 105 103.665C105 99.1555 108.656 95.5 113.165 95.5H146.78C152.604 95.5 156.843 101.024 155.335 106.65C154.263 110.654 150.556 113.379 146.415 113.208Z" fill="#C0C0C0"/>
<path d="M59.3098 39.9236L49.1455 18.1549C48.7315 17.2683 49.1049 16.2137 49.9845 15.7851C50.8744 15.3515 51.9474 15.7214 52.381 16.6114L62.904 38.2091C63.6009 39.6395 62.4215 41.2691 60.8449 41.0541C60.1743 40.9626 59.5961 40.5368 59.3098 39.9236Z" fill="#650000"/>
<path d="M72.7525 32.8874L72.4653 8.86425C72.4537 7.88591 73.2286 7.07894 74.2066 7.05107C75.1962 7.02286 76.0212 7.8022 76.0494 8.79175L76.7339 32.8068C76.7792 34.3974 75.0329 35.3959 73.6851 34.5501C73.1119 34.1904 72.7606 33.5641 72.7525 32.8874Z" fill="#650000"/>
<path d="M99.3496 28.1143L108.241 5.79551C108.604 4.88659 109.628 4.43596 110.542 4.78299C111.468 5.13413 111.934 6.16912 111.583 7.09472L103.061 29.5575C102.497 31.0452 100.502 31.3027 99.578 30.007C99.1851 29.4559 99.0991 28.743 99.3496 28.1143Z" fill="#650000"/>
<path d="M112.536 29.0043L121.532 25.0975C122.426 24.7093 123.466 25.0994 123.885 25.9796C124.314 26.8814 123.93 27.9601 123.028 28.3888L114.171 32.5999C112.959 33.1758 111.539 32.4027 111.364 31.0728C111.25 30.1992 111.728 29.3553 112.536 29.0043Z" fill="#650000"/>
<path d="M88.3744 28.4756L89.8474 18.7794C89.9938 17.8159 90.8775 17.1417 91.8455 17.2552C92.8373 17.3714 93.547 18.2697 93.4308 19.2614L92.289 29.0022C92.1329 30.3344 90.7228 31.1269 89.5037 30.5676C88.7028 30.2002 88.2421 29.3468 88.3744 28.4756Z" fill="#650000"/>
<path d="M63.7544 172.877L80.4814 143.719C82.6601 139.921 87.4468 138.518 91.3312 140.538C95.3318 142.619 96.888 147.549 94.8072 151.55L79.2958 181.372C76.6082 186.539 69.7509 187.75 65.4556 183.817C62.3985 181.017 61.6917 176.472 63.7544 172.877Z" fill="#DF0761"/>
<path d="M83.973 189.671L66.9699 189.632C63.4417 189.623 60.5349 186.859 60.3494 183.336C60.1564 179.671 62.971 176.544 66.6359 176.351L83.6156 175.457C88.1002 175.22 91.6784 179.148 91.0263 183.592C90.513 187.09 87.5083 189.679 83.973 189.671Z" fill="#518E02"/>
<circle cx="122" cy="66" r="5" fill="black"/>
<circle cx="156" cy="66" r="5" fill="black"/>
</svg>
