<svg width="200" height="200" viewBox="0 0 200 200" fill="none" xmlns="http://www.w3.org/2000/svg">
<ellipse cx="90" cy="100" rx="50" ry="75" fill="#6D5000"/>
<path d="M110 25H90V35.5H110V25Z" fill="#6D5000"/>
<path d="M110 165H90V175.5H110V165Z" fill="#6D5000"/>
<ellipse cx="110" cy="100" rx="50" ry="75" fill="#FDC93A"/>
<ellipse cx="110" cy="100" rx="40" ry="60" fill="#6D5000"/>
<path d="M126 115.187C126 118.44 125.449 121.498 124.347 124.361C123.289 127.223 121.702 129.63 119.587 131.582C117.515 133.534 115.047 134.705 112.182 135.095V143H107.884V135.095C103.741 134.51 100.391 132.591 97.8347 129.338C95.2782 126.085 94 121.791 94 116.456H102.066C102.198 118.993 102.749 121.108 103.719 122.799C104.689 124.426 106.077 125.467 107.884 125.922V104.452C104.931 103.346 102.529 102.24 100.678 101.134C98.8264 99.9633 97.2397 98.1416 95.9174 95.6693C94.6391 93.1971 94 89.814 94 85.5201C94 80.1202 95.2782 75.6636 97.8347 72.1504C100.391 68.5721 103.741 66.4902 107.884 65.9047V58H112.182V65.9047C116.061 66.4252 119.168 68.2468 121.504 71.3697C123.884 74.4275 125.229 78.6563 125.537 84.0563H117.471C117.339 82.0394 116.81 80.2503 115.884 78.6889C114.959 77.0624 113.725 75.9564 112.182 75.3708V96.4501C115.135 97.491 117.537 98.597 119.388 99.7681C121.24 100.874 122.804 102.663 124.083 105.135C125.361 107.543 126 110.893 126 115.187ZM101.669 84.9346C101.669 87.602 102.198 89.6839 103.256 91.1803C104.358 92.6766 105.901 93.8802 107.884 94.791V75.0781C105.989 75.4034 104.468 76.4118 103.322 78.1033C102.22 79.7949 101.669 82.0719 101.669 84.9346ZM112.182 125.922C114.121 125.467 115.642 124.328 116.744 122.506C117.846 120.62 118.397 118.375 118.397 115.773C118.397 113.17 117.846 111.153 116.744 109.722C115.686 108.226 114.165 107.022 112.182 106.111V125.922Z" fill="#FCAE1D"/>
</svg>
