<svg width="200" height="200" viewBox="0 0 200 200" fill="none" xmlns="http://www.w3.org/2000/svg">
<ellipse cx="82.881" cy="100" rx="0.880952" ry="75" fill="#6D5000"/>
<path d="M119 25H82V101H119V25Z" fill="#6D5000"/>
<path d="M117.238 101H82V176H117.238V101Z" fill="#6D5000"/>
<ellipse cx="118.119" cy="100" rx="0.880952" ry="75" fill="#FDC93A"/>
<path d="M118.401 115.187C118.401 118.44 118.391 121.498 118.372 124.361C118.353 127.223 118.325 129.63 118.288 131.582C118.251 133.534 118.208 134.705 118.158 135.095V143H118.082V135.095C118.009 134.51 117.95 132.591 117.905 129.338C117.86 126.085 117.837 121.791 117.837 116.456H117.979C117.982 118.993 117.991 121.108 118.008 122.799C118.025 124.426 118.05 125.467 118.082 125.922V104.452C118.03 103.346 117.987 102.24 117.955 101.134C117.922 99.9633 117.894 98.1416 117.871 95.6693C117.848 93.1971 117.837 89.814 117.837 85.5201C117.837 80.1202 117.86 75.6636 117.905 72.1504C117.95 68.5721 118.009 66.4902 118.082 65.9047V58H118.158V65.9047C118.226 66.4252 118.281 68.2468 118.322 71.3697C118.364 74.4275 118.387 78.6563 118.393 84.0563H118.251C118.248 82.0394 118.239 80.2503 118.223 78.6889C118.206 77.0624 118.185 75.9564 118.158 75.3708V96.4501C118.21 97.491 118.252 98.597 118.284 99.7681C118.317 100.874 118.345 102.663 118.367 105.135C118.39 107.543 118.401 110.893 118.401 115.187ZM117.972 84.9346C117.972 87.602 117.982 89.6839 118 91.1803C118.02 92.6766 118.047 93.8802 118.082 94.791V75.0781C118.048 75.4034 118.022 76.4118 118.001 78.1033C117.982 79.7949 117.972 82.0719 117.972 84.9346ZM118.158 125.922C118.192 125.467 118.218 124.328 118.238 122.506C118.257 120.62 118.267 118.375 118.267 115.773C118.267 113.17 118.257 111.153 118.238 109.722C118.219 108.226 118.192 107.022 118.158 106.111V125.922Z" fill="#FCAE1D"/>
</svg>
