<svg width="200" height="200" viewBox="0 0 200 200" fill="none" xmlns="http://www.w3.org/2000/svg">
<circle cx="100" cy="101" r="75" fill="#6D5000"/>
<path d="M110 26H90V36.5H110V26Z" fill="#6D5000"/>
<path d="M110 166H90V176H110V166Z" fill="#6D5000"/>
<circle cx="100" cy="101" r="75" fill="#FDC93A"/>
<circle cx="100" cy="101" r="60" fill="#6D5000"/>
<path d="M124 116.187C124 119.44 123.174 122.498 121.521 125.361C119.934 128.223 117.554 130.63 114.38 132.582C111.273 134.534 107.57 135.705 103.273 136.095V144H96.8264V136.095C90.6116 135.51 85.5868 133.591 81.7521 130.338C77.9174 127.085 76 122.791 76 117.456H88.0992C88.2975 119.993 89.124 122.108 90.5785 123.799C92.0331 125.426 94.1157 126.467 96.8264 126.922V105.452C92.3967 104.346 88.7934 103.24 86.0165 102.134C83.2397 100.963 80.8595 99.1416 78.876 96.6693C76.9587 94.1971 76 90.814 76 86.5201C76 81.1202 77.9174 76.6636 81.7521 73.1504C85.5868 69.5721 90.6116 67.4902 96.8264 66.9047V59H103.273V66.9047C109.091 67.4252 113.752 69.2468 117.256 72.3697C120.826 75.4275 122.843 79.6563 123.306 85.0563H111.207C111.008 83.0394 110.215 81.2503 108.826 79.6889C107.438 78.0624 105.587 76.9564 103.273 76.3708V97.4501C107.702 98.491 111.306 99.597 114.083 100.768C116.86 101.874 119.207 103.663 121.124 106.135C123.041 108.543 124 111.893 124 116.187ZM87.5041 85.9346C87.5041 88.602 88.2975 90.6839 89.8843 92.1803C91.5372 93.6766 93.8512 94.8802 96.8264 95.791V76.0781C93.9835 76.4034 91.7025 77.4118 89.9835 79.1033C88.3306 80.7949 87.5041 83.0719 87.5041 85.9346ZM103.273 126.922C106.182 126.467 108.463 125.328 110.116 123.506C111.769 121.62 112.595 119.375 112.595 116.773C112.595 114.17 111.769 112.153 110.116 110.722C108.529 109.226 106.248 108.022 103.273 107.111V126.922Z" fill="#FCAE1D"/>
</svg>
