<svg width="200" height="200" viewBox="0 0 200 200" fill="none" xmlns="http://www.w3.org/2000/svg">
<ellipse cx="110" cy="101" rx="50" ry="75" fill="#6D5000"/>
<path d="M108 26H90V37H108V26Z" fill="#6D5000"/>
<path d="M108 166H90V176H108V166Z" fill="#6D5000"/>
<ellipse cx="90" cy="101" rx="50" ry="75" fill="#FDC93A"/>
<ellipse cx="90" cy="101" rx="40" ry="60" fill="#6D5000"/>
<path d="M106 116.187C106 119.44 105.449 122.498 104.347 125.361C103.289 128.223 101.702 130.63 99.5868 132.582C97.5152 134.534 95.0468 135.705 92.1818 136.095V144H87.8843V136.095C83.741 135.51 80.3912 133.591 77.8347 130.338C75.2782 127.085 74 122.791 74 117.456H82.0661C82.1983 119.993 82.7493 122.108 83.719 123.799C84.6887 125.426 86.0771 126.467 87.8843 126.922V105.452C84.9311 104.346 82.5289 103.24 80.6777 102.134C78.8264 100.963 77.2397 99.1416 75.9174 96.6693C74.6391 94.1971 74 90.814 74 86.5201C74 81.1202 75.2782 76.6636 77.8347 73.1504C80.3912 69.5721 83.741 67.4902 87.8843 66.9047V59H92.1818V66.9047C96.0606 67.4252 99.168 69.2468 101.504 72.3697C103.884 75.4275 105.229 79.6563 105.537 85.0563H97.4711C97.3388 83.0394 96.8099 81.2503 95.8843 79.6889C94.9587 78.0624 93.7245 76.9564 92.1818 76.3708V97.4501C95.135 98.491 97.5372 99.597 99.3884 100.768C101.24 101.874 102.804 103.663 104.083 106.135C105.361 108.543 106 111.893 106 116.187ZM81.6694 85.9346C81.6694 88.602 82.1983 90.6839 83.2562 92.1803C84.3581 93.6766 85.9008 94.8802 87.8843 95.791V76.0781C85.989 76.4034 84.4683 77.4118 83.3223 79.1033C82.2204 80.7949 81.6694 83.0719 81.6694 85.9346ZM92.1818 126.922C94.1212 126.467 95.6419 125.328 96.7438 123.506C97.8457 121.62 98.3967 119.375 98.3967 116.773C98.3967 114.17 97.8457 112.153 96.7438 110.722C95.6859 109.226 94.1653 108.022 92.1818 107.111V126.922Z" fill="#FCAE1D"/>
</svg>
